<svg width="1104" height="708" viewBox="0 0 1104 708" fill="none" xmlns="http://www.w3.org/2000/svg">
<g clip-path="url(#clip0)">
<path opacity="0.1" d="M843.39 707.8C949.428 707.8 1035.39 688.548 1035.39 664.8C1035.39 641.052 949.428 621.8 843.39 621.8C737.351 621.8 651.39 641.052 651.39 664.8C651.39 688.548 737.351 707.8 843.39 707.8Z" fill="#03A9F4"/>
<g opacity="0.1">
<path opacity="0.1" d="M625.02 26.79C625.02 182.89 722.95 309.2 844.02 309.2L625.02 26.79Z" fill="#03A9F4"/>
</g>
<path opacity="0.1" d="M627.42 130.03C556.67 130.57 488.69 114.58 423.69 96.7598C358.69 78.9398 294.22 58.8999 224.9 50.7199C180.28 45.4499 129.5 46.2799 94.4304 66.7199C60.6804 86.3799 50.6904 118.61 45.7604 148.35C42.0504 170.73 40.2404 194.21 53.3004 214.57C62.3204 228.7 77.9004 240.3 88.9004 253.76C127.16 300.59 103.43 360.86 65.4904 409.27C47.7004 431.98 26.8904 453.77 13.3904 477.75C-0.109555 501.73 -5.78956 528.85 7.60044 552.35C20.8804 575.63 51.1404 592.35 83.6904 603.8C149.82 626.9 226.9 631.5 301.95 632.96C468.09 636.21 634.66 626.33 800.78 616.46C862.25 612.8 924 609.12 984.26 599.31C1017.72 593.86 1052.18 585.87 1076 568.7C1106.25 546.9 1112.68 511.59 1091 486.37C1054.63 444.08 958 436.69 932 390.84C917.69 365.6 930.43 336.47 949 311.92C988.94 259.28 1057.35 211.92 1059 153.3C1060.1 113.05 1025 74.0198 972.32 56.8698C917.07 38.8698 841.53 44.0798 802.47 78.4798C762.24 113.9 689.9 129.56 627.42 130.03Z" fill="#03A9F4"/>
<path d="M946.9 31.19V549.6C946.9 565.02 932.02 577.6 913.66 577.6H210.24C191.88 577.6 177.01 565.06 177.01 549.6V31.19C177.01 15.74 191.88 0 210.24 0L913.57 1.71C931.9 1.71 946.9 15.74 946.9 31.19Z" fill="white"/>
<path d="M946.9 31.35V55.35H177.01V31.35C177.01 23.0372 180.311 15.0647 186.188 9.18576C192.066 3.30679 200.037 0.00267713 208.35 2.55145e-05H915.5C919.621 -0.00523079 923.702 0.801712 927.511 2.37472C931.319 3.94773 934.781 6.25596 937.697 9.16747C940.613 12.079 942.927 15.5367 944.506 19.3429C946.085 23.1491 946.898 27.2292 946.9 31.35Z" fill="#3F3D56"/>
<path opacity="0.8" d="M214.3 38.7498C220.419 38.7498 225.38 33.7892 225.38 27.6698C225.38 21.5505 220.419 16.5898 214.3 16.5898C208.18 16.5898 203.22 21.5505 203.22 27.6698C203.22 33.7892 208.18 38.7498 214.3 38.7498Z" fill="#FA5959"/>
<path opacity="0.8" d="M246.53 38.7498C252.65 38.7498 257.61 33.7892 257.61 27.6698C257.61 21.5505 252.65 16.5898 246.53 16.5898C240.411 16.5898 235.45 21.5505 235.45 27.6698C235.45 33.7892 240.411 38.7498 246.53 38.7498Z" fill="#FED253"/>
<path opacity="0.8" d="M278.76 38.7498C284.879 38.7498 289.84 33.7892 289.84 27.6698C289.84 21.5505 284.879 16.5898 278.76 16.5898C272.64 16.5898 267.68 21.5505 267.68 27.6698C267.68 33.7892 272.64 38.7498 278.76 38.7498Z" fill="#8CCF4D"/>
<path opacity="0.2" d="M518.44 170.7H465.57C460.837 170.7 457 174.537 457 179.27V195.35C457 200.083 460.837 203.92 465.57 203.92H518.44C523.173 203.92 527.01 200.083 527.01 195.35V179.27C527.01 174.537 523.173 170.7 518.44 170.7Z" fill="#03A9F4"/>
<path opacity="0.2" d="M660.28 170.7H607.41C602.677 170.7 598.84 174.537 598.84 179.27V195.35C598.84 200.083 602.677 203.92 607.41 203.92H660.28C665.013 203.92 668.85 200.083 668.85 195.35V179.27C668.85 174.537 665.013 170.7 660.28 170.7Z" fill="#03A9F4"/>
<path d="M491.81 203.17L561.89 294.68L634.08 202.74" stroke="#3F3D56" stroke-miterlimit="10"/>
<path opacity="0.1" d="M606.83 291.75H516.94C512.207 291.75 508.37 295.587 508.37 300.32V333.97C508.37 338.703 512.207 342.54 516.94 342.54H606.83C611.563 342.54 615.4 338.703 615.4 333.97V300.32C615.4 295.587 611.563 291.75 606.83 291.75Z" fill="black"/>
<path d="M604.66 292.79H519.12C514.387 292.79 510.55 296.627 510.55 301.36V332.95C510.55 337.683 514.387 341.52 519.12 341.52H604.66C609.393 341.52 613.23 337.683 613.23 332.95V301.36C613.23 296.627 609.393 292.79 604.66 292.79Z" fill="#03A9F4"/>
<path d="M492.29 170.7L491.38 138.35" stroke="#3F3D56" stroke-miterlimit="10"/>
<path d="M675.22 139.93L634.08 170.7L590.81 139.93" stroke="#3F3D56" stroke-miterlimit="10"/>
<path opacity="0.2" d="M518.05 106.7H465.18C460.447 106.7 456.61 110.537 456.61 115.27V131.35C456.61 136.083 460.447 139.92 465.18 139.92H518.05C522.783 139.92 526.62 136.083 526.62 131.35V115.27C526.62 110.537 522.783 106.7 518.05 106.7Z" fill="#03A9F4"/>
<path opacity="0.2" d="M701.65 106.7H648.78C644.047 106.7 640.21 110.537 640.21 115.27V131.35C640.21 136.083 644.047 139.92 648.78 139.92H701.65C706.383 139.92 710.22 136.083 710.22 131.35V115.27C710.22 110.537 706.383 106.7 701.65 106.7Z" fill="#03A9F4"/>
<path opacity="0.2" d="M617.25 106.7H564.38C559.646 106.7 555.81 110.537 555.81 115.27V131.35C555.81 136.083 559.646 139.92 564.38 139.92H617.25C621.983 139.92 625.82 136.083 625.82 131.35V115.27C625.82 110.537 621.983 106.7 617.25 106.7Z" fill="#03A9F4"/>
<path d="M561.89 341.51L561.62 430.01" stroke="#3F3D56" stroke-miterlimit="10"/>
<path d="M462.42 493.11L561.42 462.48L660.82 492.89" stroke="#3F3D56" stroke-miterlimit="10"/>
<path opacity="0.2" d="M588.06 430.01H535.19C530.457 430.01 526.62 433.847 526.62 438.58V454.66C526.62 459.393 530.457 463.23 535.19 463.23H588.06C592.793 463.23 596.63 459.393 596.63 454.66V438.58C596.63 433.847 592.793 430.01 588.06 430.01Z" fill="#03A9F4"/>
<path opacity="0.2" d="M865.39 292.07V239.2C865.39 234.467 861.553 230.63 856.82 230.63H840.74C836.007 230.63 832.17 234.467 832.17 239.2V292.07C832.17 296.803 836.007 300.64 840.74 300.64H856.82C861.553 300.64 865.39 296.803 865.39 292.07Z" fill="#03A9F4"/>
<path opacity="0.2" d="M832.17 348.83V401.7C832.17 406.433 836.007 410.27 840.74 410.27H856.82C861.553 410.27 865.39 406.433 865.39 401.7V348.83C865.39 344.097 861.553 340.26 856.82 340.26H840.74C836.007 340.26 832.17 344.097 832.17 348.83Z" fill="#03A9F4"/>
<path opacity="0.2" d="M687.26 492.66H634.39C629.657 492.66 625.82 496.497 625.82 501.23V517.31C625.82 522.043 629.657 525.88 634.39 525.88H687.26C691.993 525.88 695.83 522.043 695.83 517.31V501.23C695.83 496.497 691.993 492.66 687.26 492.66Z" fill="#03A9F4"/>
<path opacity="0.2" d="M435.99 525.89H488.86C493.593 525.89 497.43 522.053 497.43 517.32V501.24C497.43 496.507 493.593 492.67 488.86 492.67H435.99C431.257 492.67 427.42 496.507 427.42 501.24V517.32C427.42 522.053 431.257 525.89 435.99 525.89Z" fill="#03A9F4"/>
<path opacity="0.2" d="M536.93 525.89H589.8C594.533 525.89 598.37 522.053 598.37 517.32V501.24C598.37 496.507 594.533 492.67 589.8 492.67H536.93C532.197 492.67 528.36 496.507 528.36 501.24V517.32C528.36 522.053 532.197 525.89 536.93 525.89Z" fill="#03A9F4"/>
<path d="M801 320.45L832.16 374.94" stroke="#3F3D56" stroke-miterlimit="10"/>
<path d="M735.11 319.78H767.82" stroke="#3F3D56" stroke-miterlimit="10"/>
<path d="M613.23 317.15L702.51 319.78" stroke="#3F3D56" stroke-miterlimit="10"/>
<path d="M832.16 265.63L801.15 320.21" stroke="#3F3D56" stroke-miterlimit="10"/>
<path opacity="0.2" d="M735.73 346.01V293.14C735.73 288.407 731.894 284.57 727.16 284.57H711.08C706.347 284.57 702.51 288.407 702.51 293.14V346.01C702.51 350.743 706.347 354.58 711.08 354.58H727.16C731.894 354.58 735.73 350.743 735.73 346.01Z" fill="#03A9F4"/>
<path opacity="0.2" d="M801 346.88V294.01C801 289.277 797.163 285.44 792.43 285.44H776.35C771.617 285.44 767.78 289.277 767.78 294.01V346.88C767.78 351.613 771.617 355.45 776.35 355.45H792.43C797.163 355.45 801 351.613 801 346.88Z" fill="#03A9F4"/>
<path opacity="0.2" d="M291.61 292.06V239.19C291.61 234.457 287.773 230.62 283.04 230.62H266.96C262.227 230.62 258.39 234.457 258.39 239.19V292.06C258.39 296.793 262.227 300.63 266.96 300.63H283.04C287.773 300.63 291.61 296.793 291.61 292.06Z" fill="#03A9F4"/>
<path opacity="0.2" d="M258.39 348.83V401.7C258.39 406.433 262.227 410.27 266.96 410.27H283.04C287.773 410.27 291.61 406.433 291.61 401.7V348.83C291.61 344.097 287.773 340.26 283.04 340.26H266.96C262.227 340.26 258.39 344.097 258.39 348.83Z" fill="#03A9F4"/>
<path d="M322.78 320.45L291.61 374.94" stroke="#3F3D56" stroke-miterlimit="10"/>
<path d="M388.66 319.78H355.96" stroke="#3F3D56" stroke-miterlimit="10"/>
<path d="M510.55 317.15L421.27 319.78" stroke="#3F3D56" stroke-miterlimit="10"/>
<path d="M291.61 265.63L322.62 320.21" stroke="#3F3D56" stroke-miterlimit="10"/>
<path opacity="0.2" d="M421.27 346.02V293.15C421.27 288.417 417.433 284.58 412.7 284.58H396.62C391.886 284.58 388.05 288.417 388.05 293.15V346.02C388.05 350.753 391.886 354.59 396.62 354.59H412.7C417.433 354.59 421.27 350.753 421.27 346.02Z" fill="#03A9F4"/>
<path opacity="0.2" d="M356 346.88V294.01C356 289.277 352.163 285.44 347.43 285.44H331.35C326.617 285.44 322.78 289.277 322.78 294.01V346.88C322.78 351.613 326.617 355.45 331.35 355.45H347.43C352.163 355.45 356 351.613 356 346.88Z" fill="#03A9F4"/>
<path d="M108.02 501.9C108.02 552.14 139.54 592.8 178.49 592.8L108.02 501.9Z" fill="#46455B"/>
<path d="M178.49 592.79C178.49 541.98 213.67 500.87 257.14 500.87L178.49 592.79Z" fill="#03A9F4"/>
<path d="M133.56 506.45C133.56 554.17 153.66 592.79 178.49 592.79L133.56 506.45Z" fill="#03A9F4"/>
<path d="M178.49 592.79C178.49 527.87 219.15 475.34 269.39 475.34L178.49 592.79Z" fill="#46455B"/>
<path opacity="0.1" d="M175.43 610.15C185.106 610.15 192.95 608.825 192.95 607.19C192.95 605.555 185.106 604.23 175.43 604.23C165.754 604.23 157.91 605.555 157.91 607.19C157.91 608.825 165.754 610.15 175.43 610.15Z" fill="#03A9F4"/>
<path d="M163.67 593.43C163.67 593.43 173.67 593.12 176.67 590.98C179.67 588.84 192.04 586.27 192.79 589.71C193.54 593.15 207.79 606.82 196.52 606.91C185.25 607 170.3 605.15 167.3 603.32C164.3 601.49 163.67 593.43 163.67 593.43Z" fill="#A8A8A8"/>
<path opacity="0.2" d="M196.73 605.71C185.45 605.8 170.52 603.96 167.51 602.12C165.22 600.73 164.31 595.73 164 593.42H163.67C163.67 593.42 164.3 601.48 167.31 603.31C170.32 605.14 185.25 606.99 196.53 606.9C199.79 606.9 200.91 605.71 200.85 604C200.4 605.05 199.16 605.69 196.73 605.71Z" fill="black"/>
<path d="M956.22 648.79L928.55 608.67C928.55 608.67 928.03 598.74 926.22 596.41C924.41 594.08 925.83 588.93 925.83 588.93C925.83 588.93 927.77 586.09 926.09 585.84C924.41 585.59 925.83 579.26 925.83 579.26L925.7 569.19C925.7 569.19 927.25 559.52 925.96 557.19C925.583 556.561 925.395 555.838 925.418 555.106C925.441 554.374 925.674 553.663 926.09 553.06C926.09 553.06 927.64 547.51 926.09 546.06C924.54 544.61 924.92 536 925.31 529.17C925.7 522.34 922.6 518.46 922.6 517.43C922.6 516.4 912.38 506.33 912.38 505.43C912.38 504.53 905.92 500.79 902.04 499.75C898.16 498.71 896.22 497.95 896.35 497.43C896.48 496.91 890.27 494.85 890.27 494.85C890.27 494.85 884.84 494.47 882.77 491.76C880.7 489.05 874.37 488.26 874.2 488.24C874.2 488.06 874.11 487.88 874.08 487.7L873.96 487.12C874.45 486.3 874.9 485.46 875.31 484.59L875.67 483.8C877.946 483.807 880.168 483.108 882.03 481.8C882.943 481.035 883.689 480.091 884.222 479.027C884.755 477.962 885.064 476.799 885.13 475.61C885.238 473.227 884.717 470.858 883.62 468.74C882.48 466.41 880.82 464.01 881.39 461.49C881.64 460.4 882.29 459.49 882.63 458.38C883.13 456.3 882.796 454.107 881.7 452.27C880.7 450.4 879.36 448.75 878.27 446.93C876.878 444.618 875.95 442.057 875.54 439.39C875.455 437.971 875.116 436.579 874.54 435.28C873.955 434.363 873.181 433.583 872.27 432.99C868.224 430.099 863.34 428.619 858.37 428.78C854.85 428.9 851.37 429.85 847.85 429.42C845.759 429.052 843.702 428.513 841.7 427.81C837.37 426.53 832.36 426 828.59 428.48C824.82 430.96 823.31 435.84 820.75 439.66C818.48 443.04 815.17 445.87 813.45 449.45C813.45 449.38 813.45 449.31 813.5 449.24C813.069 450.069 812.733 450.945 812.5 451.85C811.84 454.66 812.39 457.6 813.07 460.4C813.43 461.85 813.91 463.4 815.16 464.22C816.41 465.04 818.16 464.85 819.68 465.11C819.62 465.36 819.56 465.6 819.51 465.85C817.959 473.119 819.208 480.705 823.009 487.092C826.81 493.479 832.881 498.196 840.01 500.3C840.01 500.56 840.01 500.83 840.01 501.08C840.01 501.85 839.95 502.59 839.87 503.3C839.87 503.3 826.87 500.63 823.38 502.43C819.89 504.23 813.03 505.66 812 506.69C810.97 507.72 808.38 506.95 806.05 513.01C803.72 519.07 803.47 525.27 800.49 528.1C797.51 530.93 795.97 532.88 795.84 534.94C795.71 537 796.22 537.52 795.06 538.17C793.9 538.82 792.22 541.52 792.73 542.55C792.73 542.55 793.38 545.13 791.31 546.42C790.698 546.852 790.209 547.436 789.892 548.115C789.574 548.793 789.439 549.543 789.5 550.29C789.5 550.29 788.72 553.13 786.91 553.77C785.1 554.41 783.91 558.68 783.91 558.68L778.05 565.42L766.42 552.56C765.549 551.599 764.332 551.023 763.037 550.957C761.742 550.891 760.473 551.342 759.51 552.21L753.9 557.41C751.697 557.942 749.707 559.127 748.19 560.81C746.935 562.086 745.919 563.576 745.19 565.21L742.07 568.03C741.581 568.464 741.187 568.992 740.91 569.584C740.633 570.175 740.48 570.817 740.46 571.47C740.054 572.338 739.915 573.306 740.059 574.253C740.203 575.199 740.625 576.082 741.27 576.79L748.71 585.03V585.1C746.067 585.319 743.555 586.342 741.51 588.03C730.39 597.83 730.26 606.86 731.94 611.03C733.62 615.2 747.71 631.03 747.71 631.03C747.71 631.03 755.9 641.68 767.71 647.34L767.63 647.43C767.39 647.68 767.16 647.95 766.93 648.24L766.74 648.49L766.56 648.74L766.35 649.05L766.19 649.3L765.96 649.67C765.919 649.756 765.872 649.84 765.82 649.92C765.73 650.08 765.64 650.25 765.56 650.42L765.47 650.59C765.36 650.81 765.26 651.05 765.15 651.29C765.04 651.53 765.08 651.47 765.05 651.55C765.02 651.63 764.91 651.89 764.85 652.07L764.73 652.4C764.67 652.56 764.62 652.73 764.56 652.9C764.5 653.07 764.49 653.14 764.45 653.27L764.3 653.83L764.21 654.18C764.13 654.48 764.07 654.79 764 655.11L763.94 655.48C763.94 655.69 763.86 655.91 763.83 656.14C763.8 656.37 763.78 656.45 763.76 656.61C763.74 656.77 763.76 657.03 763.68 657.25C763.6 657.47 763.68 657.58 763.63 657.74C763.58 657.9 763.63 658.23 763.63 658.48C763.63 658.73 763.63 658.77 763.63 658.93C763.63 659.33 763.63 659.75 763.58 660.18C763.32 675.27 764.2 677.46 764.2 677.46C764.2 677.46 766.03 682.27 771.07 682.61C771.809 682.662 772.551 682.621 773.28 682.49C780 681.33 795.78 678.62 801.34 679.66C804.68 680.28 810.87 679.36 815.27 678.53L816.44 678.3L817.24 680.87L819.8 680.17L821.97 681.42L823.34 682.21C825.89 690.86 836.25 687.91 836.25 687.91L838.71 689.33L863.71 689.97C866.512 691.67 869.472 693.093 872.55 694.22C872.959 694.34 873.377 694.43 873.8 694.49C876.112 694.673 878.433 694.717 880.75 694.62C882.67 694.62 884.15 694.49 884.15 694.49C884.15 694.49 883.89 687.72 883.53 680.13C893.06 679.73 901.53 679.13 906.64 678.24C919.9 675.9 925.45 663.74 927.5 657.26C928.111 659.895 928.545 662.567 928.8 665.26C929.344 667.634 930.035 669.972 930.87 672.26C931.601 674.092 932.558 675.825 933.72 677.42C943.55 674.07 937.6 669.04 935.53 666.85C933.46 664.66 936.95 662.85 936.95 662.85C936.95 662.85 939.67 661.04 939.41 659.36C939.15 657.68 939.02 655.88 947.81 656.01C956.6 656.14 956.22 648.79 956.22 648.79ZM819.68 566.42C819.79 567.16 821.02 575.1 822.13 577.19C822.437 578.584 822.535 580.017 822.42 581.44C817.21 581.03 811.78 580.8 811.78 580.8C811.938 580.99 812.035 581.224 812.06 581.47L811.24 581.28C810.86 581.19 810.46 581.1 810.05 580.99L819.65 566.4L819.68 566.42ZM800.68 596.67L809.68 598.1L810.44 598.22C810.183 599.627 810.026 601.051 809.97 602.48C809.97 602.61 810.17 602.77 810.46 602.96C810.338 603.663 810.281 604.376 810.29 605.09C810.43 605.81 814.65 607.35 819.49 608.63C819.42 608.89 819.35 609.13 819.29 609.37C815.02 607.12 808.29 606.07 807.51 604.37C806.73 602.67 783.9 594.74 783.9 594.74C783.9 594.74 783.06 594.29 781.62 593.6L787.62 594.74L789.28 594.57C793.024 595.513 796.825 596.215 800.66 596.67H800.68Z" fill="url(#paint0_linear)"/>
<path d="M926.79 654.4C926.79 654.4 923.2 676.05 905 679.26C886.8 682.47 826.06 681.82 826.06 681.82C826.06 681.82 791.33 676.82 778.77 647.48C766.21 618.14 758.14 606.48 768.9 605.95C779.66 605.42 837.72 625.56 841.05 625.82C844.38 626.08 929.99 581.22 926.79 654.4Z" fill="#65617D"/>
<path opacity="0.05" d="M926.79 654.4C926.79 654.4 923.2 676.05 905 679.26C886.8 682.47 826.06 681.82 826.06 681.82C826.06 681.82 791.33 676.82 778.77 647.48C766.21 618.14 758.14 606.48 768.9 605.95C779.66 605.42 837.72 625.56 841.05 625.82C844.38 626.08 929.99 581.22 926.79 654.4Z" fill="black"/>
<path d="M763.9 678.49C763.9 678.49 765.71 683.26 770.7 683.61C771.432 683.662 772.168 683.621 772.89 683.49C779.56 682.33 795.19 679.64 800.7 680.67C804.02 681.28 810.15 680.37 814.52 679.55C817.42 679 819.52 678.49 819.52 678.49C819.52 678.49 814.4 661.49 813.75 660.93C813.1 660.37 790.69 646.93 790.69 646.93L772.9 645.69C770.52 646.057 768.372 647.324 766.9 649.23C765.03 651.5 763.42 655.23 763.31 661.33C763 676.31 763.9 678.49 763.9 678.49Z" fill="#3F3D56"/>
<path opacity="0.05" d="M763.9 678.49C763.9 678.49 765.71 683.26 770.7 683.61C768.96 681.371 767.351 679.034 765.88 676.61L765.97 664.18C765.611 660.771 766.057 657.326 767.273 654.121C768.489 650.917 770.44 648.043 772.97 645.73H772.9C772.9 645.73 763.55 646.37 763.29 661.37C763.03 676.37 763.9 678.49 763.9 678.49Z" fill="black"/>
<path opacity="0.1" d="M840.9 651.32L857.43 638.38L883.43 612.75C883.43 612.75 880.62 612.61 876.38 612.43C875.38 613.1 872.38 615.21 872.26 617.78C872.14 620.92 865.26 618 861.64 619.78C858.02 621.56 840.54 644.06 837.46 643.9C834.38 643.74 831.95 642.34 830.67 644.52L830.58 644.66L840.9 651.32Z" fill="black"/>
<path opacity="0.1" d="M766.9 649.22C767.49 649.5 768.09 649.78 768.69 650.04C781.25 655.42 796.76 666.7 797.91 668.75C798.62 670 807.61 675.46 814.55 679.55C817.45 679 819.55 678.49 819.55 678.49C819.55 678.49 814.43 661.49 813.78 660.93C813.13 660.37 790.72 646.93 790.72 646.93L772.9 645.69C770.522 646.054 768.374 647.318 766.9 649.22Z" fill="black"/>
<path d="M731.99 612.49C733.66 616.59 747.63 632.35 747.63 632.35C747.63 632.35 756.47 643.89 769.03 649.27C781.59 654.65 797.09 665.93 798.25 667.98C798.99 669.3 809 675.33 816.05 679.47L817.63 680.39L821.13 682.39L822.98 683.46C822.98 683.46 827.27 680.01 831.55 676.54C835.83 673.07 839.96 669.68 840.03 669.54C840.15 669.16 841.82 664.8 841.43 664.54C841.23 664.41 840.35 662.63 838.74 660.54C837.017 658.253 834.78 656.403 832.21 655.14C826.31 652.45 823.75 646.32 823.75 646.32C823.75 646.32 823.19 645.92 822.34 645.38C820.593 644.172 818.636 643.301 816.57 642.81C813.75 642.46 808.5 636.69 808.5 636.69C808.5 636.69 804.91 634.38 803.5 631.44C802.09 628.5 782.28 614.98 780.44 613.71L828.62 644.66L840.15 652.07L856.69 639.13L882.69 613.5C882.69 613.5 879.19 613.33 874.11 613.11C861.46 612.56 839.01 611.7 836.17 612.34C833.878 612.877 831.513 613.032 829.17 612.8C829.17 612.8 822.77 613.09 818.54 610.86C814.31 608.63 807.64 607.58 806.87 605.93C806.1 604.28 783.42 596.32 783.42 596.32C783.42 596.32 752.54 579.92 741.51 589.66C730.48 599.4 730.33 608.39 731.99 612.49Z" fill="#65617D"/>
<path d="M831.57 518.43L835.57 531.62L840.7 561.36L859.53 562.64L864.99 553.64L870.43 544.64C870.43 544.64 873.82 532.64 876.26 521C878.41 510.72 879.82 500.74 877.48 499.66C875.4 498.66 874.03 495.23 873.14 491.51C873.03 491.05 872.92 490.58 872.83 490.12C872.206 486.964 871.788 483.771 871.58 480.56C871.58 480.56 832.11 478.51 837.58 494.79C838.567 497.567 839.071 500.493 839.07 503.44C839.061 504.175 839.014 504.91 838.93 505.64C838.65 508.164 837.851 510.602 836.585 512.803C835.318 515.004 833.611 516.919 831.57 518.43Z" fill="#EE8E9E"/>
<path d="M823.36 516.25L824.78 538.67L827.98 557.77L831.57 566.61L834.77 614.99C834.77 614.99 865.67 618.56 873.19 614.93C873.73 614.699 874.199 614.33 874.55 613.86C883.62 600.16 880.65 560.46 880.65 560.46L884.11 534.83L881.8 521.53L876.23 520.93L871.94 520.48C871.94 520.48 870.94 521.67 869.57 523.48C865.77 528.48 858.78 538.36 859.25 542.48C859.89 548.12 858.48 553.88 856.25 554.78C854.02 555.68 852.25 557.22 851.9 555.68C851.55 554.14 851.13 553.76 851.51 551.58C851.89 549.4 849.84 542.73 849.84 542.73C849.84 542.73 846.38 534.92 846.64 531.58C846.9 528.24 846.26 524.41 845.23 523.51C844.2 522.61 842.8 521.72 843.95 517.62C845.1 513.52 838.9 505.57 838.9 505.57L823.36 516.25Z" fill="#E3E8F4"/>
<path opacity="0.1" d="M864.18 572.26L865.47 610.58L872.87 614.68C873.407 614.449 873.876 614.084 874.23 613.62C883.3 599.91 880.33 560.21 880.33 560.21L883.79 534.58L881.48 521.28L875.91 520.68C878.06 510.4 879.47 500.42 877.13 499.34C875.05 498.34 873.68 494.91 872.79 491.19L868.79 518.3C868.79 518.3 869.12 520.75 869.24 523.3C869.403 524.897 869.295 526.509 868.92 528.07C868.02 530.38 868.66 534.48 868.66 534.48C866.35 538.55 865.19 546.09 864.66 553.37C863.9 563.03 864.18 572.26 864.18 572.26Z" fill="black"/>
<path d="M872.9 490.58C872.9 490.58 879.36 491.38 881.41 494.08C883.46 496.78 888.84 497.15 888.84 497.15C888.84 497.15 894.99 499.15 894.84 499.71C894.69 500.27 896.63 501 900.47 502.02C904.31 503.04 910.73 506.76 910.73 507.66C910.73 508.56 920.9 518.55 920.9 519.58C920.9 520.61 923.98 524.45 923.59 531.24C923.2 538.03 922.82 546.62 924.36 548.03C925.9 549.44 924.36 554.95 924.36 554.95C923.946 555.548 923.714 556.254 923.691 556.981C923.668 557.708 923.855 558.427 924.23 559.05C925.51 561.36 923.98 570.97 923.98 570.97L924.1 580.97C924.1 580.97 922.69 587.25 924.36 587.51C926.03 587.77 924.1 590.59 924.1 590.59C924.1 590.59 922.69 595.71 924.49 598.02C926.29 600.33 926.8 610.19 926.8 610.19L954.22 650.05C954.22 650.05 954.61 657.35 945.89 657.23C937.17 657.11 937.3 658.89 937.56 660.56C937.82 662.23 935.13 664.02 935.13 664.02C935.13 664.02 931.67 665.81 933.72 668.02C935.77 670.23 941.66 675.2 931.92 678.53C930.772 676.943 929.825 675.22 929.1 673.4C928.274 671.138 927.589 668.827 927.05 666.48C927.05 666.48 926.15 656.74 924.36 655.48C922.57 654.22 922.82 648.05 922.82 648.05C922.82 648.05 925.39 643.05 921.82 641C918.25 638.95 866.2 610.11 866.2 610.11L864.9 571.74C864.9 571.74 864 543.42 869.38 533.93C869.38 533.93 868.74 529.83 869.64 527.52C870.54 525.21 869.51 517.78 869.51 517.78L872.9 490.58Z" fill="#3F3D56"/>
<path opacity="0.1" d="M839.33 505.96C839.33 505.96 826.44 503.3 822.98 505.1C819.52 506.9 812.73 508.3 811.7 509.33C810.67 510.36 808.12 509.58 805.81 515.61C803.5 521.64 803.25 527.78 800.3 530.61C797.35 533.44 795.81 535.35 795.68 537.4C795.55 539.45 796.07 539.96 794.92 540.61C793.77 541.26 792.1 543.94 792.61 544.96C793.12 545.98 819.26 568.54 819.26 568.54C819.26 568.54 820.55 577.13 821.7 579.31C822.85 581.49 820.42 611.47 817.86 613.53C815.3 615.59 835.16 615.39 835.16 615.39C835.16 615.39 836.05 595.71 836.82 594.69C837.59 593.67 836.31 572.69 836.31 572.69C836.31 572.69 836.18 554.75 837.85 550.01C839.52 545.27 839.33 529.51 839.33 529.51C839.33 529.51 840.8 520.05 842.59 517.84C844.38 515.63 839.33 505.96 839.33 505.96Z" fill="black"/>
<path d="M838.9 505.57C838.9 505.57 826.02 502.92 822.56 504.71C819.1 506.5 812.34 507.9 811.32 508.9C810.3 509.9 807.73 509.16 805.42 515.18C803.11 521.2 802.86 527.36 799.91 530.18C796.96 533 795.43 534.92 795.3 536.97C795.17 539.02 795.68 539.53 794.53 540.17C793.38 540.81 791.71 543.5 792.22 544.53C792.73 545.56 818.9 568.15 818.9 568.15C818.9 568.15 820.18 576.73 821.34 578.91C822.5 581.09 820.05 611.08 817.49 613.13C814.93 615.18 834.79 614.99 834.79 614.99C834.79 614.99 835.69 595.32 836.46 594.29C837.23 593.26 835.94 572.29 835.94 572.29C835.94 572.29 835.82 554.35 837.48 549.61C839.14 544.87 838.9 529.06 838.9 529.06C838.9 529.06 840.37 519.6 842.16 517.4C843.95 515.2 838.9 505.57 838.9 505.57Z" fill="#3F3D56"/>
<path opacity="0.1" d="M837.59 494.72C838.577 497.497 839.081 500.423 839.08 503.37C845.38 505.245 852.128 504.952 858.242 502.537C864.355 500.122 869.482 495.725 872.8 490.05C872.176 486.894 871.758 483.701 871.55 480.49C871.55 480.49 832.08 478.44 837.59 494.72Z" fill="black"/>
<path d="M818.11 474.47C818.111 481.988 820.998 489.22 826.174 494.672C831.35 500.125 838.421 503.384 845.929 503.776C853.437 504.168 860.809 501.664 866.526 496.78C872.242 491.897 875.866 485.006 876.65 477.528C877.435 470.051 875.32 462.558 870.742 456.594C866.164 450.63 859.472 446.651 852.046 445.476C844.62 444.302 837.026 446.022 830.831 450.281C824.636 454.541 820.312 461.016 818.75 468.37C818.325 470.375 818.11 472.42 818.11 474.47Z" fill="#EE8E9E"/>
<path d="M799.27 542.39L792.27 544.57C792.27 544.57 792.92 547.13 790.86 548.41C790.253 548.841 789.769 549.423 789.455 550.098C789.141 550.773 789.008 551.518 789.07 552.26C789.07 552.26 788.3 555.08 786.51 555.72C784.72 556.36 783.56 560.59 783.56 560.59L777.66 567.38C777.66 567.38 775.49 569.17 775.87 570.07C776.25 570.97 773.56 571.22 773.56 571.22L774.9 594.04L787.08 596.34L794.64 595.57L800.79 593.27L806.17 590.06L808.61 583.78L819.37 567.38L799.27 542.39Z" fill="#3F3D56"/>
<path d="M775.31 573.02C775.31 573.02 759.67 550.46 748.01 562.64C736.35 574.82 752.75 594.55 756.6 593.91C760.45 593.27 778.77 592.24 778.77 592.24L775.31 573.02Z" fill="#EE8E9E"/>
<path d="M812.66 563.566L742.518 527.765C741.761 527.378 740.833 527.679 740.446 528.437L712.961 582.288C712.574 583.045 712.875 583.973 713.632 584.359L783.774 620.16C784.531 620.547 785.459 620.246 785.846 619.489L813.331 565.637C813.718 564.88 813.417 563.952 812.66 563.566Z" fill="#3F3D56"/>
<path d="M805.66 566.426L744.398 535.158L720.836 581.323L782.097 612.591L805.66 566.426Z" fill="#03A9F4"/>
<path d="M730.3 558.13C730.924 558.13 731.43 557.624 731.43 557C731.43 556.376 730.924 555.87 730.3 555.87C729.676 555.87 729.17 556.376 729.17 557C729.17 557.624 729.676 558.13 730.3 558.13Z" fill="#E6E8EC"/>
<path d="M796.61 592.83C797.637 592.83 798.47 591.997 798.47 590.97C798.47 589.943 797.637 589.11 796.61 589.11C795.583 589.11 794.75 589.943 794.75 590.97C794.75 591.997 795.583 592.83 796.61 592.83Z" fill="#E6E8EC"/>
<path d="M765.18 577.76C765.06 594.68 800.04 598.26 800.04 598.26L808.98 599.68L812.98 600.32L814.65 583.78C814.65 583.78 812.82 583.51 810.53 582.98C807.14 582.19 802.75 580.82 801.83 578.91C800.3 575.71 765.31 560.84 765.18 577.76Z" fill="#EE8E9E"/>
<path opacity="0.1" d="M818.75 468.37C819.563 468.435 820.326 468.79 820.9 469.37C821.9 470.42 821.9 472.28 823.23 472.92C823.71 473.134 824.244 473.197 824.76 473.1C828.17 472.62 830.14 468.77 833.41 467.71C835.321 467.22 837.343 467.396 839.14 468.21C839.872 468.432 840.529 468.85 841.04 469.42C842.14 470.84 841.37 472.93 841.88 474.64C842.58 477.02 845.42 477.97 847.88 478.28C850.34 478.59 853.11 478.76 854.76 480.62C855.306 481.32 855.696 482.127 855.907 482.989C856.117 483.851 856.142 484.748 855.98 485.62C855.835 486.221 855.835 486.849 855.98 487.45C856.66 489.38 859.98 489.09 860.85 487.57C861.49 486.47 861.3 485.57 862.79 485.25C863.866 485.159 864.947 485.345 865.93 485.79C868.538 486.684 871.284 487.104 874.04 487.03C875.802 483.284 876.752 479.208 876.827 475.069C876.902 470.93 876.101 466.822 874.476 463.015C872.851 459.208 870.44 455.787 867.399 452.978C864.358 450.169 860.758 448.035 856.834 446.716C852.911 445.397 848.752 444.923 844.632 445.325C840.512 445.727 836.524 446.996 832.929 449.048C829.334 451.101 826.214 453.891 823.774 457.234C821.334 460.578 819.628 464.4 818.77 468.45L818.75 468.37Z" fill="black"/>
<path d="M855.96 486.61C855.817 486.005 855.817 485.375 855.96 484.77C856.122 483.898 856.097 483.001 855.887 482.139C855.676 481.277 855.285 480.47 854.74 479.77C853.09 477.91 850.32 477.77 847.86 477.43C845.4 477.09 842.56 476.17 841.86 473.79C841.35 472.08 842.12 469.99 841.02 468.58C840.512 468.005 839.854 467.583 839.12 467.36C837.322 466.546 835.301 466.37 833.39 466.86C830.12 467.92 828.15 471.77 824.74 472.25C824.223 472.347 823.69 472.284 823.21 472.07C821.92 471.43 821.87 469.57 820.88 468.52C819.32 466.87 816.37 467.94 814.46 466.71C813.22 465.91 812.74 464.35 812.39 462.92C811.72 460.13 811.17 457.21 811.83 454.42C812.94 449.65 817.2 446.42 819.92 442.31C822.46 438.52 823.92 433.72 827.69 431.2C831.46 428.68 836.39 429.26 840.69 430.54C842.672 431.238 844.709 431.77 846.78 432.13C850.24 432.56 853.72 431.62 857.21 431.5C862.134 431.345 866.973 432.814 870.98 435.68C871.883 436.272 872.649 437.05 873.23 437.96C873.811 439.247 874.15 440.63 874.23 442.04C874.642 444.691 875.562 447.238 876.94 449.54C878.01 451.34 879.37 452.97 880.34 454.84C881.423 456.667 881.753 458.844 881.26 460.91C880.93 461.96 880.26 462.91 880.03 464C879.46 466.5 881.11 468.89 882.24 471.2C883.329 473.306 883.846 475.661 883.74 478.03C883.675 479.21 883.369 480.364 882.839 481.42C882.309 482.477 881.567 483.413 880.66 484.17C878.762 485.504 876.49 486.205 874.17 486.17C871.359 486.256 868.556 485.825 865.9 484.9C864.916 484.455 863.835 484.269 862.76 484.36C861.27 484.66 861.46 485.58 860.82 486.68C859.96 488.24 856.64 488.53 855.96 486.61Z" fill="#3F3D56"/>
<path opacity="0.1" d="M840.15 652.09L856.69 639.15L882.69 613.52C882.69 613.52 879.19 613.35 874.11 613.13C873.101 614.039 872.455 615.282 872.29 616.63C872.17 619.76 865.29 616.85 861.67 618.63C858.05 620.41 840.54 642.9 837.46 642.76C834.38 642.62 831.95 641.2 830.67 643.38L830.58 643.52C830.055 644.111 829.354 644.518 828.58 644.68L840.15 652.09Z" fill="black"/>
<path d="M806.83 651.19L815.14 677.71L816.44 681.87L820.44 680.79L829.16 678.39L868 667.72C872.882 667.509 877.66 666.236 882 663.99C889.347 659.881 897.75 658.05 906.14 658.73C911.27 659.21 916.98 657 921.72 648.24C921.72 648.24 932.48 616.46 905.31 607.36C878.14 598.26 876.85 612.2 876.85 612.2L876.48 612.43C875.48 613.1 872.48 615.21 872.36 617.78C872.24 620.92 865.36 618 861.74 619.78C858.12 621.56 840.54 644.06 837.46 643.9C834.38 643.74 831.95 642.34 830.67 644.52L830.58 644.66C829.63 645.97 826.77 646.27 824.89 646.33C823.89 646.33 823.11 646.33 823.11 646.33L822.87 646.4L820.87 646.99L806.83 651.19Z" fill="#65617D"/>
<path opacity="0.1" d="M808.98 599.68L812.98 600.32L814.65 583.78C814.65 583.78 812.82 583.51 810.53 582.98C811.13 585.28 809.76 594.2 808.98 599.68Z" fill="black"/>
<path opacity="0.1" d="M913.77 522.43C913.77 522.43 925.69 518.97 922.77 552.81C919.85 586.65 897.77 608.04 897.77 608.04C897.77 608.04 872.4 619.19 860.99 617.4C854.454 616.345 847.869 615.617 841.26 615.22C837.669 613.404 833.739 612.355 829.72 612.14C823.32 611.89 809.86 607.91 809.6 606.63C809.34 605.35 812.94 586.51 811.4 585.1C811.4 585.1 829.34 585.84 831.13 587.1C832.92 588.36 835.49 587.47 837.41 587.1C839.33 586.73 845.23 581.61 856.89 586.1C856.89 586.1 860.89 586.48 862.4 585.46C863.91 584.44 866.4 585.2 866.4 585.2C867.39 584.86 868.329 584.385 869.19 583.79C869.57 583.28 872.65 583.79 872.65 583.79C872.833 583.88 873.034 583.927 873.237 583.929C873.441 583.931 873.642 583.887 873.826 583.8C874.01 583.714 874.173 583.587 874.302 583.43C874.431 583.272 874.522 583.088 874.57 582.89C874.971 581.839 875.58 580.88 876.36 580.07C876.36 580.07 879.82 560.59 886.36 553.29C886.36 553.29 888.28 551.62 887.77 549.57C887.26 547.52 898.39 518.33 913.77 522.43Z" fill="black"/>
<path d="M913.46 519.83C913.46 519.83 925.38 516.37 922.46 550.21C919.54 584.05 897.46 605.44 897.46 605.44C897.46 605.44 872.08 616.59 860.68 614.8C849.28 613.01 840.9 612.62 840.9 612.62C837.312 610.805 833.385 609.756 829.37 609.54C822.96 609.29 809.51 605.31 809.25 604.03C808.99 602.75 812.58 583.91 811.04 582.5C811.04 582.5 828.98 583.24 830.78 584.5C832.58 585.76 835.14 584.86 837.06 584.5C838.98 584.14 844.88 579 856.54 583.5C856.54 583.5 860.54 583.88 862.05 582.86C863.56 581.84 866.05 582.6 866.05 582.6C867.037 582.261 867.973 581.786 868.83 581.19C869.21 580.68 872.29 581.19 872.29 581.19C872.473 581.28 872.673 581.327 872.877 581.329C873.08 581.331 873.281 581.287 873.466 581.2C873.65 581.114 873.812 580.987 873.941 580.83C874.07 580.672 874.162 580.488 874.21 580.29C874.619 579.241 875.231 578.283 876.01 577.47C876.01 577.47 879.47 557.99 886.01 550.69C886.01 550.69 887.94 549.02 887.42 546.97C886.9 544.92 898.08 515.73 913.46 519.83Z" fill="#3F3D56"/>
<path opacity="0.1" d="M820.9 646.98L837.82 667.46C837.89 667.4 837.93 667.36 837.93 667.34C838.06 666.96 839.72 662.6 839.34 662.34C838.96 662.08 836.01 655.67 830.11 652.98C827.118 651.515 824.606 649.225 822.87 646.38L820.9 646.98Z" fill="black"/>
<path opacity="0.1" d="M821.13 682.42L822.98 683.49C822.98 683.49 827.27 680.04 831.55 676.57C835.83 673.1 839.96 669.71 840.03 669.57C840.15 669.19 841.82 664.83 841.43 664.57C841.23 664.44 840.35 662.66 838.74 660.57C827.26 657.35 834.57 665.32 835.54 665.68C835.54 665.68 821.54 662.48 820.8 677.68C820.7 679.268 820.811 680.862 821.13 682.42Z" fill="black"/>
<path d="M835.28 688.9L837.72 690.31L862.45 690.95C865.226 692.634 868.16 694.044 871.21 695.16C871.615 695.287 872.03 695.381 872.45 695.44C874.742 695.618 877.043 695.662 879.34 695.57C881.24 695.57 882.7 695.44 882.7 695.44C882.7 695.44 881.53 664.24 880.7 660.96C880.28 659.39 878.2 659.74 876.16 660.52C874.624 661.143 873.142 661.892 871.73 662.76C871.73 662.76 861.22 663.76 859.55 664.69C857.88 665.62 853.15 664.17 850.2 664.69C847.25 665.21 842 661.22 842 661.22C827.64 656.48 835.72 665.32 836.74 665.7C836.74 665.7 822.74 662.5 822.01 677.7C821.28 692.9 835.28 688.9 835.28 688.9Z" fill="#3F3D56"/>
<path d="M871.04 676.82C871.31 683.28 876.34 691.3 879.34 695.54C881.24 695.54 882.7 695.41 882.7 695.41C882.7 695.41 881.53 664.21 880.7 660.93C880.28 659.36 878.2 659.71 876.16 660.49C873.63 665.14 870.82 671.62 871.04 676.82Z" fill="#565387"/>
<path opacity="0.1" d="M871.04 676.82C871.31 683.28 876.34 691.3 879.34 695.54C881.24 695.54 882.7 695.41 882.7 695.41C882.7 695.41 881.53 664.21 880.7 660.93C880.28 659.36 878.2 659.71 876.16 660.49C873.63 665.14 870.82 671.62 871.04 676.82Z" fill="black"/>
<path opacity="0.05" d="M866.81 677.68C868.51 683.91 868.49 690.9 871.21 695.13C871.615 695.258 872.03 695.351 872.45 695.41C874.743 695.589 877.043 695.632 879.34 695.54C881.24 695.54 882.7 695.41 882.7 695.41C882.7 695.41 881.53 664.21 880.7 660.93C880.28 659.36 878.2 659.71 876.16 660.49C874.624 661.113 873.143 661.862 871.73 662.73C871.73 662.73 864.63 669.7 866.81 677.68Z" fill="black"/>
<path opacity="0.1" d="M781.48 614.45C781.48 614.45 793.77 618.45 804.18 632.61L781.48 614.45Z" fill="black"/>
<g opacity="0.1">
<path opacity="0.1" d="M881.311 460.67C881.311 460.77 881.311 460.86 881.241 460.95C881.116 461.314 880.973 461.671 880.811 462.02C880.937 461.556 881.104 461.104 881.311 460.67Z" fill="black"/>
<path opacity="0.1" d="M811.8 454.46C812.032 453.561 812.368 452.692 812.8 451.87C812.73 452.09 812.67 452.31 812.61 452.54C811.96 455.33 812.5 458.25 813.18 461.03C813.53 462.47 814.01 464.03 815.25 464.83C817.16 466.05 820.11 464.99 821.67 466.64C822.67 467.64 822.67 469.55 824 470.19C824.48 470.405 825.014 470.467 825.53 470.37C828.93 469.89 830.91 466.04 834.18 464.98C836.092 464.49 838.113 464.666 839.91 465.48C840.644 465.704 841.301 466.126 841.81 466.7C842.9 468.11 842.14 470.2 842.64 471.91C843.35 474.29 846.19 475.23 848.64 475.55C851.09 475.87 853.87 476.03 855.52 477.89C856.066 478.59 856.457 479.397 856.667 480.259C856.877 481.121 856.902 482.018 856.74 482.89C856.59 483.491 856.59 484.119 856.74 484.72C857.42 486.64 860.74 486.36 861.61 484.84C862.25 483.74 862.05 482.84 863.55 482.51C864.627 482.427 865.706 482.617 866.69 483.06C869.353 483.971 872.158 484.391 874.97 484.3C877.29 484.335 879.562 483.635 881.46 482.3C882.289 481.643 882.971 480.818 883.46 479.88C883.026 481.586 882.055 483.108 880.69 484.22C878.792 485.555 876.52 486.255 874.2 486.22C871.376 486.294 868.562 485.846 865.9 484.9C864.917 484.455 863.836 484.269 862.76 484.36C861.27 484.66 861.46 485.58 860.82 486.68C859.95 488.2 856.63 488.49 855.95 486.57C855.807 485.965 855.807 485.335 855.95 484.73C856.112 483.858 856.087 482.961 855.877 482.099C855.667 481.237 855.276 480.43 854.73 479.73C853.08 477.87 850.31 477.73 847.85 477.39C845.39 477.05 842.55 476.13 841.85 473.75C841.34 472.04 842.11 469.95 841.01 468.54C840.501 467.967 839.843 467.545 839.11 467.32C837.313 466.506 835.292 466.33 833.38 466.82C830.11 467.88 828.13 471.73 824.73 472.21C824.214 472.307 823.68 472.245 823.2 472.03C821.91 471.39 821.86 469.53 820.87 468.48C819.31 466.83 816.36 467.9 814.45 466.67C813.21 465.87 812.73 464.31 812.38 462.88C811.69 460.17 811.15 457.25 811.8 454.46Z" fill="black"/>
</g>
<path opacity="0.1" d="M883.3 557.03C880.95 560.2 878.3 563.13 876.19 566.48C874.08 569.83 872.65 573.75 873.08 577.67C875.23 575.47 876.21 572.42 877.57 569.67C879.86 564.99 883.29 561.02 886.19 556.67C886.74 555.85 890.28 551.1 888.49 550.87C887.01 550.7 884.1 555.95 883.3 557.03Z" fill="black"/>
</g>
<defs>
<linearGradient id="paint0_linear" x1="843.72" y1="694.62" x2="843.72" y2="426.8" gradientUnits="userSpaceOnUse">
<stop stop-color="#808080" stop-opacity="0.25"/>
<stop offset="0.54" stop-color="#808080" stop-opacity="0.12"/>
<stop offset="1" stop-color="#808080" stop-opacity="0.1"/>
</linearGradient>
<clipPath id="clip0">
<rect width="1103.79" height="707.8" fill="white"/>
</clipPath>
</defs>
</svg>
